<?xml version="1.0" encoding="utf-8"?>
<!-- Generator: Adobe Illustrator 24.0.1, SVG Export Plug-In . SVG Version: 6.00 Build 0)  -->
<svg version="1.1" id="圖層_1" xmlns="http://www.w3.org/2000/svg" xmlns:xlink="http://www.w3.org/1999/xlink" x="0px" y="0px"
	 viewBox="0 0 361.3 361.3" style="enable-background:new 0 0 361.3 361.3;" xml:space="preserve">
<style type="text/css">
	.st0{fill:#CCCCCC;stroke:#CCCCCC;stroke-miterlimit:10;}
</style>
<path class="st0" d="M180.8,0.5c99-0.3,180.2,80.7,180,180.2c-0.2,99.8-80.6,180.1-180.5,180.1c-99.6,0-180-81.4-179.8-180.4
	C0.6,81.1,81.5,0.1,180.8,0.5z M12.8,180.6c0.8,93.5,74.6,167.7,167.7,167.8c93.2,0.1,167.7-73.9,167.9-167.4
	c0.2-93.4-74.2-167.8-167.3-168C87.4,12.8,13.6,87.3,12.8,180.6z"/>
<path class="st0" d="M180.3,336.8c-39-0.5-73.4-13.3-102.8-39.2c-29.6-26.1-47.2-59-51.8-98.2c-5.3-44.5,6.8-84.4,35.2-119.1
	c3.3-4,6.7-4.2,10.7-0.8c1,0.9,2,1.9,3,2.9c68.1,68.1,136.3,136.3,204.4,204.4c0.8,0.8,1.6,1.6,2.4,2.4c3.9,4.3,3.7,7.8-0.8,11.5
	c-24.9,20.2-53.2,32.3-85.3,35.4C190.3,336.6,185.3,336.6,180.3,336.8z M36.9,180.6c0,1.6-0.1,3.3,0,4.9s0.4,3.2,0.5,4.8
	c2.6,37.3,17.5,69,44.7,94.6c30.3,28.5,66.5,41.5,108.1,39c27.7-1.7,52.6-11,75.2-27.1c2.3-1.7,2.9-2.8,0.6-5.1
	c-9.6-9.3-19-18.8-28.4-28.4c-1.9-1.9-3.5-2-5.9-1c-15.3,6.4-30.8,12.6-46.1,19c-3.5,1.5-6.6,1.4-10.1-0.1
	c-13.2-5.6-26.6-11-39.9-16.5c-18.8-7.7-37.7-15.5-56.5-23.2c-3.8-1.6-6.6-3.5-6.6-8.3c0.1-31.1,0.1-62.2,0-93.4
	c0-3.5,1.4-5.9,4.6-7.4c5.3-2.4,10.6-5,15.9-7.5c3.9-1.9,4-2.1,1-5.1c-8-8.1-16.2-16-24.1-24.2c-2.4-2.5-3.6-2.4-5.6,0.4
	C46.1,121.4,37.4,149.7,36.9,180.6z M174.5,233.8c0-10-0.1-20,0-30c0-2.4-0.7-4.3-2.5-6c-4.8-4.6-9.4-9.3-14.1-14
	c-1.5-1.5-3.3-2.6-5.2-3.5c-6.4-2.9-12.7-5.9-19-8.9c-15-7.1-30.1-14.2-45.1-21.3c-2.4-1.1-4-1.8-4,2.2c0.1,24.9,0.1,49.7,0,74.6
	c0,2.5,0.8,3.8,3.2,4.8c27.9,11.4,55.7,22.8,83.5,34.4c2.8,1.2,3.2,0.2,3.2-2.3C174.5,253.8,174.6,243.8,174.5,233.8z M187.2,213.5
	c-0.2,0.9-0.4,1.2-0.4,1.6c0,16.4,0,32.7-0.1,49.1c0,2.7,1,2.8,3.2,1.9c10.9-4.6,21.9-9.1,32.9-13.6c2.2-0.9,2.3-1.7,0.7-3.3
	c-11.6-11.5-23.2-23.1-34.7-34.7C188.4,214.2,187.9,214,187.2,213.5z M93.5,138.6c12,5.7,23.1,10.9,34.3,16.1
	c0.1-0.2,0.3-0.5,0.4-0.7c-6.7-6.7-13.4-13.4-20-20.1c-1-1-2.1-1.4-3.4-0.7C101.3,134.9,97.8,136.5,93.5,138.6z"/>
<path class="st0" d="M180.6,24.4c39.3,0.4,73.9,13.2,103.4,39.4c29.6,26.2,47.1,59.1,51.7,98.3c5.2,44.3-6.9,83.9-35,118.5
	c-3.9,4.8-7,4.7-11.8-0.1c-48.7-48.5-97.4-97.1-146.1-145.6c-20.4-20.4-40.8-40.8-61.3-61.2c-1.3-1.3-2.7-2.6-3.6-4.3
	c-1.6-3.3-0.9-5.8,2.7-8.8c11.7-9.6,24.3-17.5,38.2-23.4C138.6,28.7,159.1,24.3,180.6,24.4z M179.1,36.7c-1.9-0.2-5.2,0.5-8.6,0.7
	c-27.5,1.9-52.3,11.1-74.7,27.2c-2.6,1.9-2.4,3-0.3,5.1c11.5,11.3,22.9,22.7,34.2,34.2c2,2.1,3.7,2.1,6.2,0.9
	c12.9-6.2,26-12.2,38.9-18.5c3.9-1.9,7.4-2,11.4-0.1c29.8,14.1,59.7,28,89.5,42.2c15,7.2,13,4,13,20.4c0.1,27.9,0,55.7,0.1,83.6
	c0,4.3-1.5,7.2-5.6,8.7c-2.7,1-5.3,2.3-8,3.2c-2.6,0.9-3.1,1.9-0.9,4.1c5.9,5.7,11.8,11.6,17.5,17.5c2,2.1,3.2,2,4.9-0.3
	c22.7-32.1,31.8-67.6,26-106.4c-4.9-32.7-19.6-60.6-43.8-83.3C251.2,50,218.2,37.6,179.1,36.7z M267.1,139c-1-1.6-2.3-1.9-3.4-2.4
	c-26.8-12.6-53.6-25.2-80.3-37.9c-2-1-3.7-0.8-5.6,0.1c-10.9,5.2-21.8,10.5-32.9,15.5c-3,1.4-2.3,2.3-0.5,4.1
	c17,16.9,34,33.9,50.9,50.9c1.8,1.8,3.3,2.1,5.6,0.9c9.4-4.6,19-8.9,28.5-13.4C241.8,151,254.3,145.1,267.1,139z M276.5,190
	c0-11.9,0-23.7,0-35.6c0-6,0-6.1-5.5-3.5c-20.1,9.5-40.2,19.1-60.3,28.4c-3.3,1.5-3.2,2.4-0.8,4.7c14.7,14.6,29.4,29.3,44,44
	c8.4,8.4,8.4,8.4,19.4,3.8c2.5-1,3.3-2.5,3.3-5.1C276.5,214.5,276.5,202.2,276.5,190z"/>
<path class="st0" d="M196.7,64.7c0.7,0.3,1.8,0.7,2.8,1.2C221,76,242.4,86.2,263.9,96.1c3.2,1.5,3.5,2.9,2,5.9
	c-3.7,7.1-3.6,7.3-10.9,3.8c-20.3-9.5-40.6-19.2-61-28.7c-3.3-1.5-4-3.2-2.1-6.2c0.9-1.5,1.5-3.2,2.2-4.7
	C194.5,65.3,195.1,64.5,196.7,64.7z"/>
<path class="st0" d="M290.9,110.8c-1.3,2.6-2.7,5.7-4.3,8.6c-0.4,0.8-1.3,0.7-2,0.3c-2.9-1.4-5.9-2.7-8.8-4.1
	c-2-0.9-1.5-2.6-0.5-3.8c1.9-2.5,1-7.7,5.4-7.3c3.1,0.2,6.1,2.5,9.2,4C290.7,108.9,291.1,109.5,290.9,110.8z"/>
</svg>
